<?xml version="1.0" encoding="UTF-8"?><svg id="uuid-3cb9720f-4219-4bed-9fff-d03c7c29b40a" xmlns="http://www.w3.org/2000/svg" viewBox="0 0 655.53 180"><path d="M636.99,41.28v8.96c-2.85-2.11-5.95-3.9-9.25-5.31,0,0,0,0-.01,0-1.08-.46-2.18-.88-3.3-1.26-.03-.01-.06-.02-.1-.03-.54-.18-1.09-.35-1.64-.51-.04-.01-.09-.03-.13-.04-1.1-.32-2.21-.6-3.34-.83-.07-.01-.14-.03-.21-.04-.54-.11-1.08-.21-1.63-.3-.08-.01-.16-.03-.24-.04-1.11-.18-2.23-.32-3.37-.42-.1,0-.2-.02-.29-.03-.54-.04-1.09-.08-1.64-.1-.1,0-.21,0-.31-.01-.57-.02-1.14-.03-1.71-.03-25.26,0-45.73,20.47-45.73,45.73s20.47,45.73,45.73,45.73c.57,0,1.15-.01,1.71-.03.1,0,.21,0,.31-.01.55-.02,1.1-.06,1.64-.1.1,0,.2-.02.29-.03,1.14-.1,2.26-.24,3.37-.42.08-.01.16-.03.24-.04.55-.09,1.09-.19,1.63-.3.07-.01.14-.03.21-.04,1.13-.24,2.24-.51,3.34-.83.04-.01.09-.02.13-.04.55-.16,1.1-.33,1.64-.51.03-.01.06-.02.1-.03,1.12-.38,2.22-.8,3.3-1.26,0,0,0,0,.01,0,3.3-1.41,6.41-3.2,9.25-5.31v8.96h18.54V41.28h-18.54ZM587.55,87.01c0-12.29,9.96-22.25,22.25-22.25s22.25,9.96,22.25,22.25-9.96,22.25-22.25,22.25-22.25-9.96-22.25-22.25Z" fill="#414042" stroke-width="0"/><path d="M431.83,41.28v8.96c-2.85-2.11-5.95-3.9-9.25-5.31,0,0,0,0-.01,0-1.08-.46-2.18-.88-3.3-1.26-.03-.01-.07-.02-.1-.03-.54-.18-1.09-.35-1.64-.51-.04-.01-.09-.03-.13-.04-1.1-.32-2.21-.6-3.34-.83-.07-.01-.14-.03-.21-.04-.54-.11-1.08-.21-1.63-.3-.08-.01-.16-.03-.24-.04-1.11-.18-2.23-.32-3.37-.42-.1,0-.2-.02-.29-.03-.54-.04-1.09-.08-1.64-.1-.1,0-.21,0-.31-.01-.57-.02-1.14-.03-1.71-.03-25.26,0-45.73,20.47-45.73,45.73s20.47,45.73,45.73,45.73c.57,0,1.15-.01,1.71-.03.1,0,.21,0,.31-.01.55-.02,1.1-.06,1.64-.1.1,0,.2-.02.29-.03,1.14-.1,2.26-.24,3.37-.42.08-.01.16-.03.24-.04.55-.09,1.09-.19,1.63-.3.07-.01.14-.03.21-.04,1.13-.24,2.24-.51,3.34-.83.04-.01.09-.02.13-.04.55-.16,1.1-.33,1.64-.51.03-.01.07-.02.1-.03,1.12-.38,2.22-.8,3.3-1.26,0,0,0,0,.01,0,3.3-1.41,6.4-3.2,9.25-5.31v8.96h18.54V41.28h-18.54ZM382.39,87.01c0-12.29,9.96-22.25,22.25-22.25s22.25,9.96,22.25,22.25-9.96,22.25-22.25,22.25-22.25-9.96-22.25-22.25Z" fill="#414042" stroke-width="0"/><path d="M552.88,84.54c-1.28-24.11-21.23-43.26-45.66-43.26s-45.73,20.47-45.73,45.73c0,2.46.2,4.88.58,7.24,0,.17-.01.34-.01.51l.12.06c3.71,21.53,22.46,37.92,45.05,37.92,3.75,0,7.5-.46,11.15-1.37,1.52-.38,3.18-.88,4.68-1.48,1.94-.77,4.92-2.72,5.66.59.21.95.08,1.99,0,2.96-.62,6.95-1.09,14.04-6.72,18.96-4.37,3.83-10.2,5.74-17.48,5.74-5.95,0-11.02-1.06-15.21-3.19-4.19-2.13-7.99-5.19-11.38-9.2l-15.3,15.12c4.37,6.07,10.11,10.78,17.21,14.12,7.1,3.34,15.39,5.01,24.86,5.01s17.61-1.79,24.77-5.37c7.16-3.58,12.78-8.65,16.85-15.21,4.07-6.56,6.1-14.15,6.1-22.77l.49-52.11ZM552.95,132.74,526.03,98.85c-.06.1-.12.2-.18.29-.27.42-.57.82-.87,1.21-.12.16-.23.31-.35.47-.28.35-.58.69-.88,1.03-.16.18-.32.36-.49.54-.29.3-.59.59-.89.87-.2.19-.41.38-.61.56-.3.26-.6.5-.91.74-.24.19-.48.37-.73.55-.3.22-.61.42-.92.62-.28.18-.56.35-.85.51-.3.18-.61.35-.92.51-.31.16-.63.31-.96.46-.3.14-.61.28-.92.41-.35.14-.71.27-1.07.39-.3.1-.6.21-.9.3-.39.12-.8.21-1.2.31-.29.07-.57.15-.86.2-.46.09-.93.15-1.4.21-.24.03-.48.08-.73.1-.72.07-1.45.11-2.2.11-.7,0-1.38-.04-2.06-.1-.21-.02-.42-.05-.63-.07-.47-.06-.94-.13-1.41-.22-.23-.04-.45-.08-.68-.13-.48-.11-.96-.23-1.43-.37-.17-.05-.35-.09-.52-.14-.6-.19-1.18-.41-1.76-.64-.24-.1-.47-.21-.71-.32-.34-.16-.68-.32-1.02-.49-.28-.14-.55-.29-.82-.45-.27-.16-.54-.32-.8-.49-.29-.18-.58-.36-.86-.55-.17-.12-.33-.25-.5-.37-.64-.47-1.25-.97-1.83-1.51-.11-.1-.22-.2-.33-.3-.33-.31-.64-.63-.94-.96-.09-.1-.18-.2-.27-.3-1.41-1.57-2.59-3.34-3.51-5.27-.01-.03-.03-.06-.04-.08-1.35-2.87-2.13-6.07-2.13-9.46,0-12.29,9.96-22.25,22.25-22.25s22.25,9.96,22.25,22.25c0,4.36-1.27,8.41-3.43,11.84Z" fill="#414042" stroke-width="0"/><path d="M367.58,44.43c-.52-.27-1.05-.53-1.58-.76-3.34-1.42-7.19-2.13-11.57-2.13-9.84,0-17.37,3.18-22.59,9.53-.06.08-.12.17-.18.24v-9.93h-23.86v91.36h23.86v-49.21c0-2.69.26-5.09.77-7.22,1.32-7.77,7.97-13.69,15.99-13.69,1.55,0,3.04.24,4.46.66,3.23-7.5,8.32-13.99,14.69-18.85Z" fill="#414042" stroke-width="0"/><path d="M296.43,41.22c-.32,0-3,0-3.29,0-.68,0-1.35.22-1.87.66-.85.72-1.8,1.32-2.84,1.76-.01,0-.02.01-.04.02-.3.13-.61.24-.93.34-.04.01-.07.03-.11.04-.29.09-.6.17-.9.23-.06.01-.12.03-.18.05-.29.06-.58.1-.88.14-.08.01-.16.03-.25.04-.38.04-.76.06-1.15.06-2.82,0-5.39-1.05-7.37-2.76-.28-.25-.61-.46-.87-.73-.43-.46-.79-1.02-1.14-1.55-.62-.94-1.11-1.98-1.42-3.07,0-.03-.03-.06-.03-.08-.02-.07-.02-.13-.04-.2-.24-.91-.38-1.86-.38-2.84,0-1.55.31-3.03.88-4.37,1.42-3.36,4.43-5.89,8.09-6.64.73-.15,1.49-.23,2.26-.23.41,0,.82.03,1.21.07.12.01.24.04.37.06.27.04.55.08.82.14.13.03.27.07.4.1.25.06.5.13.75.21.13.04.25.09.38.14.24.09.49.19.72.3.11.05.23.11.34.16.24.12.48.25.72.39.09.06.19.11.28.17.25.16.49.32.72.5.07.05.14.1.21.16.26.2.5.41.74.63.04.04.08.07.13.11.28.27.54.54.79.83l15.7-15.86c-3.05-3.05-6.61-5.5-10.69-7.35-4.08-1.85-8.85-2.78-14.29-2.78-7.08,0-13.28,1.53-18.61,4.57-5.33,3.05-9.42,7.16-12.25,12.33-2.83,5.17-4.24,11.02-4.24,17.55v7.09h-21.34v25.94h21.34v65.06h25.14v-65.06h23.11v-26.33Z" fill="#414042" stroke-width="0"/><path d="M7.74,71.1h29.68c4.46,0,8.08,3.62,8.08,8.08v29.46H15.82c-4.46,0-8.08-3.62-8.08-8.08v-29.46h0Z" transform="translate(-55.75 45.14) rotate(-45)" fill="#ff0049" stroke-width="0"/><path d="M41.04,37.8h29.68c4.46,0,8.08,3.62,8.08,8.08v29.46h-29.68c-4.46,0-8.08-3.62-8.08-8.08v-29.46h0Z" transform="translate(-22.45 58.93) rotate(-45)" fill="#ff0049" stroke-width="0"/><path d="M74.33,4.51h29.68c4.46,0,8.08,3.62,8.08,8.08v29.46h-29.68c-4.46,0-8.08-3.62-8.08-8.08V4.51h0Z" transform="translate(10.84 72.72) rotate(-45)" fill="#ff0049" stroke-width="0"/><path d="M40.85,104.2h29.68c4.46,0,8.08,3.62,8.08,8.08v29.46h-29.68c-4.46,0-8.08-3.62-8.08-8.08v-29.46h0Z" transform="translate(-69.46 78.25) rotate(-45)" fill="#ff0049" stroke-width="0"/><path d="M74.14,70.91h29.68c4.46,0,8.08,3.62,8.08,8.08v29.46h-29.68c-4.46,0-8.08-3.62-8.08-8.08v-29.46h0Z" transform="translate(-36.16 92.04) rotate(-45)" fill="#ff0049" stroke-width="0"/><path d="M116.35,41.23h23.65c3.72,0,6.73,3.02,6.73,6.73v23.47h-23.65c-3.72,0-6.73-3.02-6.73-6.73v-23.47h0Z" transform="translate(-1.31 109.51) rotate(-45)" fill="#8a05be" stroke-width="0"/><path d="M73.95,137.31h29.68c4.46,0,8.08,3.62,8.08,8.08v29.46h-29.68c-4.46,0-8.08-3.62-8.08-8.08v-29.46h0Z" transform="translate(-83.17 111.35) rotate(-45)" fill="#ff0049" stroke-width="0"/><path d="M116.11,107.64h23.65c3.72,0,6.73,3.02,6.73,6.73v23.47h-23.65c-3.72,0-6.73-3.02-6.73-6.73v-23.47h0Z" transform="translate(-48.33 128.79) rotate(-45)" fill="#8a05be" stroke-width="0"/><path d="M159.09,78.23h17.43c2.72,0,4.94,2.21,4.94,4.94v17.3h-17.43c-2.72,0-4.94-2.21-4.94-4.94v-17.3h0Z" transform="translate(-13.31 146.57) rotate(-45)" fill="#ffcf01" stroke-width="0"/></svg>