<?xml version="1.0" encoding="UTF-8"?><svg id="uuid-a1536493-ba81-4b94-896b-65ff06f7db6d" xmlns="http://www.w3.org/2000/svg" viewBox="0 0 236.32 180"><path d="M226.1,103.53v4.94c-1.57-1.16-3.28-2.15-5.1-2.93,0,0,0,0,0,0-.6-.25-1.2-.49-1.82-.69-.02,0-.04-.01-.05-.02-.3-.1-.6-.19-.9-.28-.02,0-.05-.01-.07-.02-.6-.18-1.22-.33-1.84-.46-.04,0-.08-.02-.12-.02-.3-.06-.6-.12-.9-.17-.04,0-.09-.01-.13-.02-.61-.1-1.23-.18-1.86-.23-.05,0-.11,0-.16-.01-.3-.02-.6-.04-.9-.06-.06,0-.11,0-.17,0-.31-.01-.63-.02-.95-.02-13.92,0-25.21,11.29-25.21,25.21s11.29,25.21,25.21,25.21c.32,0,.63,0,.95-.02.06,0,.11,0,.17,0,.3-.01.6-.03.9-.06.05,0,.11,0,.16-.01.63-.05,1.25-.13,1.86-.23.05,0,.09-.01.13-.02.3-.05.6-.11.9-.17.04,0,.08-.02.12-.02.62-.13,1.24-.28,1.84-.46.02,0,.05-.01.07-.02.3-.09.6-.18.9-.28.02,0,.04-.01.05-.02.62-.21,1.23-.44,1.82-.69,0,0,0,0,0,0,1.82-.78,3.53-1.76,5.1-2.93v4.94h10.22v-50.42h-10.22ZM198.85,128.74c0-6.77,5.49-12.26,12.26-12.26s12.26,5.49,12.26,12.26-5.49,12.26-12.26,12.26-12.26-5.49-12.26-12.26Z" fill="#fff" stroke-width="0"/><path d="M113,103.53v4.94c-1.57-1.16-3.28-2.15-5.1-2.93,0,0,0,0,0,0-.6-.25-1.2-.49-1.82-.69-.02,0-.04-.01-.05-.02-.3-.1-.6-.19-.9-.28-.02,0-.05-.01-.07-.02-.6-.18-1.22-.33-1.84-.46-.04,0-.08-.02-.12-.02-.3-.06-.6-.12-.9-.17-.04,0-.09-.01-.13-.02-.61-.1-1.23-.18-1.86-.23-.05,0-.11,0-.16-.01-.3-.02-.6-.04-.9-.06-.06,0-.11,0-.17,0-.31-.01-.63-.02-.95-.02-13.92,0-25.21,11.29-25.21,25.21s11.29,25.21,25.21,25.21c.32,0,.63,0,.95-.02.06,0,.11,0,.17,0,.3-.01.6-.03.9-.06.05,0,.11,0,.16-.01.63-.05,1.25-.13,1.86-.23.04,0,.09-.01.13-.02.3-.05.6-.11.9-.17.04,0,.08-.02.12-.02.62-.13,1.24-.28,1.84-.46.02,0,.05-.01.07-.02.3-.09.6-.18.9-.28.02,0,.04-.01.05-.02.62-.21,1.23-.44,1.82-.69,0,0,0,0,0,0,1.82-.78,3.53-1.76,5.1-2.93v4.94h10.22v-50.42h-10.22ZM85.75,128.74c0-6.77,5.49-12.26,12.26-12.26s12.26,5.49,12.26,12.26-5.49,12.26-12.26,12.26-12.26-5.49-12.26-12.26Z" fill="#fff" stroke-width="0"/><path d="M179.73,127.38c-.71-13.29-11.71-23.85-25.17-23.85s-25.21,11.29-25.21,25.21c0,1.36.11,2.69.32,3.99,0,.09,0,.19,0,.28l.06.03c2.04,11.87,12.38,20.9,24.83,20.91,2.07,0,4.14-.25,6.14-.75.84-.21,1.75-.48,2.58-.81,1.07-.43,2.71-1.5,3.12.33.12.53.04,1.1,0,1.63-.34,3.83-.6,7.74-3.7,10.45-2.41,2.11-5.62,3.16-9.64,3.16-3.28,0-6.07-.59-8.38-1.76-2.31-1.17-4.4-2.86-6.28-5.07l-8.43,8.33c2.41,3.35,5.57,5.94,9.49,7.78,3.92,1.84,8.48,2.76,13.71,2.76s9.7-.99,13.65-2.96c3.95-1.98,7.05-4.77,9.29-8.38,2.24-3.61,3.36-7.8,3.36-12.55l.27-28.73ZM179.77,153.95,164.93,135.27c-.03.05-.06.11-.1.16-.15.23-.31.45-.48.67-.06.09-.13.17-.19.26-.15.19-.32.38-.48.57-.09.1-.18.2-.27.3-.16.17-.32.32-.49.48-.11.1-.22.21-.34.31-.16.14-.33.28-.5.41-.13.1-.27.2-.4.3-.17.12-.33.23-.51.34-.15.1-.31.19-.47.28-.17.1-.34.19-.51.28-.17.09-.35.17-.53.25-.17.08-.33.15-.51.22-.19.08-.39.15-.59.22-.17.06-.33.12-.5.17-.22.07-.44.12-.66.17-.16.04-.31.08-.47.11-.25.05-.51.08-.77.12-.13.02-.27.04-.4.06-.4.04-.8.06-1.21.06-.38,0-.76-.02-1.14-.06-.12-.01-.23-.03-.35-.04-.26-.03-.52-.07-.78-.12-.13-.02-.25-.05-.37-.07-.27-.06-.53-.13-.79-.2-.1-.03-.19-.05-.29-.08-.33-.1-.65-.22-.97-.35-.13-.05-.26-.12-.39-.18-.19-.09-.38-.17-.56-.27-.15-.08-.3-.16-.45-.25-.15-.09-.3-.18-.44-.27-.16-.1-.32-.2-.47-.31-.09-.07-.18-.14-.27-.21-.35-.26-.69-.54-1.01-.83-.06-.06-.12-.11-.18-.17-.18-.17-.35-.35-.52-.53-.05-.06-.1-.11-.15-.17-.78-.87-1.43-1.84-1.93-2.91,0-.02-.01-.03-.02-.05-.75-1.58-1.18-3.35-1.18-5.21,0-6.77,5.49-12.26,12.26-12.26s12.26,5.49,12.26,12.26c0,2.4-.7,4.63-1.89,6.53Z" fill="#fff" stroke-width="0"/><path d="M77.59,105.26c-.29-.15-.58-.29-.87-.42-1.84-.78-3.97-1.17-6.38-1.17-5.42,0-9.57,1.75-12.45,5.25-.04.04-.07.09-.1.13v-5.47h-13.15v50.36h13.15v-27.13c0-1.48.15-2.81.42-3.98.73-4.28,4.39-7.55,8.82-7.55.86,0,1.68.13,2.46.36,1.78-4.14,4.59-7.71,8.1-10.39Z" fill="#fff" stroke-width="0"/><path d="M38.36,103.49c-.17,0-1.65,0-1.81,0-.38,0-.74.12-1.03.37-.47.4-.99.73-1.56.97,0,0-.01,0-.02,0-.17.07-.34.13-.51.19-.02,0-.04.02-.06.02-.16.05-.33.09-.5.13-.03,0-.07.02-.1.03-.16.03-.32.05-.48.07-.05,0-.09.02-.14.02-.21.02-.42.03-.64.03-1.56,0-2.97-.58-4.06-1.52-.16-.14-.33-.25-.48-.4-.24-.25-.44-.56-.63-.85-.34-.52-.61-1.09-.78-1.69,0-.02-.01-.03-.02-.05,0-.04-.01-.07-.02-.11-.13-.5-.21-1.02-.21-1.57,0-.86.17-1.67.49-2.41.78-1.85,2.44-3.25,4.46-3.66.4-.08.82-.13,1.25-.13.23,0,.45.01.67.04.07,0,.13.02.2.03.15.02.3.04.45.08.07.02.15.04.22.06.14.04.28.07.41.12.07.02.14.05.21.08.13.05.27.1.4.16.06.03.13.06.19.09.13.07.27.14.39.21.05.03.1.06.16.09.14.09.27.18.4.27.04.03.08.06.12.09.14.11.28.23.41.35.02.02.05.04.07.06.15.15.3.3.43.46l8.65-8.74c-1.68-1.68-3.64-3.03-5.89-4.05-2.25-1.02-4.88-1.53-7.88-1.53-3.9,0-7.32.84-10.26,2.52-2.94,1.68-5.19,3.95-6.75,6.8-1.56,2.85-2.34,6.08-2.34,9.68v3.91H0v14.3h11.76v35.87h13.86v-35.87h12.74v-14.52Z" fill="#fff" stroke-width="0"/><path d="M76.74,34.58h14.44c2.17,0,3.93,1.76,3.93,3.93v14.33h-14.44c-2.17,0-3.93-1.76-3.93-3.93v-14.33h0Z" transform="translate(-5.74 73.56) rotate(-45)" fill="#fff" stroke-width="0"/><path d="M92.94,18.39h14.44c2.17,0,3.93,1.76,3.93,3.93v14.33h-14.44c-2.17,0-3.93-1.76-3.93-3.93v-14.33h0Z" transform="translate(10.45 80.27) rotate(-45)" fill="#fff" stroke-width="0"/><path d="M109.13,2.19h14.44c2.17,0,3.93,1.76,3.93,3.93v14.33h-14.44c-2.17,0-3.93-1.76-3.93-3.93V2.19h0Z" transform="translate(26.65 86.98) rotate(-45)" fill="#fff" stroke-width="0"/><path d="M92.84,50.69h14.44c2.17,0,3.93,1.76,3.93,3.93v14.33h-14.44c-2.17,0-3.93-1.76-3.93-3.93v-14.33h0Z" transform="translate(-12.41 89.66) rotate(-45)" fill="#fff" stroke-width="0"/><path d="M109.04,34.49h14.44c2.17,0,3.93,1.76,3.93,3.93v14.33h-14.44c-2.17,0-3.93-1.76-3.93-3.93v-14.33h0Z" transform="translate(3.78 96.37) rotate(-45)" fill="#fff" stroke-width="0"/><path d="M129.57,20.06h11.5c1.81,0,3.28,1.47,3.28,3.28v11.42h-11.5c-1.81,0-3.28-1.47-3.28-3.28v-11.42h0Z" transform="translate(20.74 104.87) rotate(-45)" fill="#fff" stroke-width="0"/><path d="M108.95,66.79h14.44c2.17,0,3.93,1.76,3.93,3.93v14.33h-14.44c-2.17,0-3.93-1.76-3.93-3.93v-14.33h0Z" transform="translate(-19.08 105.77) rotate(-45)" fill="#fff" stroke-width="0"/><path d="M129.45,52.36h11.5c1.81,0,3.28,1.47,3.28,3.28v11.42h-11.5c-1.81,0-3.28-1.47-3.28-3.28v-11.42h0Z" transform="translate(-2.14 114.25) rotate(-45)" fill="#fff" stroke-width="0"/><path d="M150.36,38.05h8.48c1.33,0,2.4,1.08,2.4,2.4v8.42h-8.48c-1.33,0-2.4-1.08-2.4-2.4v-8.42h0Z" transform="translate(14.9 122.9) rotate(-45)" fill="#fff" stroke-width="0"/></svg>